<?xml version="1.0" encoding="UTF-8"?>
<svg xmlns="http://www.w3.org/2000/svg" xmlns:xlink="http://www.w3.org/1999/xlink" width="24px" height="24px" viewBox="0 0 24 24" version="1.1">
<g id="surface1">
<path style=" stroke:none;fill-rule:nonzero;fill:#fcb923;fill-opacity:1;" d="M 17.84375 2 C 15.785156 2 13.96875 3.03125 12.882812 4.605469 C 12.882812 4.605469 12.515625 5.152344 11.933594 5.152344 C 11.351562 5.152344 10.984375 4.605469 10.984375 4.605469 C 9.898438 3.03125 8.082031 2 6.023438 2 C 2.695312 2 0 4.695312 0 8.023438 C 0 8.808594 0.15625 9.554688 0.429688 10.242188 C 2.113281 15.484375 9.660156 21.644531 11.933594 21.867188 C 14.203125 21.644531 21.75 15.484375 23.4375 10.242188 C 23.710938 9.554688 23.867188 8.808594 23.867188 8.023438 C 23.867188 4.695312 21.167969 2 17.84375 2 Z M 17.84375 2 "/>
</g>
</svg>
